<?xml version="1.0" encoding="UTF-8" standalone="no"?>
<!-- Created with Inkscape (http://www.inkscape.org/) -->

<svg
   width="80.283119mm"
   height="29.845179mm"
   viewBox="0 0 80.283119 29.845179"
   version="1.1"
   id="svg1"
   xml:space="preserve"
   xmlns="http://www.w3.org/2000/svg"
   xmlns:svg="http://www.w3.org/2000/svg"><defs
     id="defs1" /><g
     id="layer1"
     transform="translate(-9.8584405,-60.077408)"><g
       id="g2648"
       transform="translate(-40.71341,-181.40517)"><path
         id="path756"
         style="fill:#ff4e00;fill-opacity:1"
         d="m 99.232291,252.54855 -0.521867,-0.0497 -0.01537,-0.0155 -0.01537,-0.0155 2.204836,-0.008 2.20483,-0.008 0.8616,-0.10926 0.86159,-0.10926 0.0199,0.0163 0.0199,0.0163 -0.2978,0.0849 -0.29781,0.0849 -0.44469,0.0613 -0.44469,0.0613 -1.80657,0.0196 -1.806565,0.0196 z m 0.104966,-0.75707 -0.305726,-0.0166 -0.91718,-0.0599 -0.91718,-0.0599 -0.815919,-0.10825 -0.815919,-0.10824 -0.557926,-0.11185 -0.557926,-0.11185 -0.126995,-0.0561 -0.126995,-0.0561 0.138967,0.0292 0.138966,0.0292 0.694834,0.0916 0.694833,0.0916 1.445253,0.004 1.445253,0.004 0.806007,-0.0981 0.806006,-0.0981 0.69483,-0.11398 0.69483,-0.11399 0.9812,-0.24556 0.9812,-0.24555 0.76978,-0.24931 0.76978,-0.24931 0.77822,-0.38598 0.77821,-0.38598 0.47249,-0.31672 0.47248,-0.31671 0.36132,-0.30219 0.36131,-0.3022 0.26632,-0.31554 0.26632,-0.31555 0.17837,-0.36014 0.17838,-0.36015 v -0.47365 -0.47366 l -0.15209,-0.32465 -0.15209,-0.32465 -0.3238,-0.31684 -0.3238,-0.31684 -0.44507,-0.23155 -0.44507,-0.23155 -0.5243,-0.17128 -0.52429,-0.17128 -0.63655,-0.11008 -0.63655,-0.11007 -0.78091,-0.0942 -0.78091,-0.0942 -1.77877,9.3e-4 -1.77878,9.2e-4 -0.72262,0.0705 -0.722626,0.0705 -0.705156,0.10717 -0.705155,0.10718 -0.962444,0.19725 -0.962445,0.19726 -0.870652,0.2483 -0.870653,0.24829 -0.802596,0.27358 -0.802596,0.27357 -0.939325,0.37105 -0.939324,0.37105 -0.222346,0.11223 -0.222347,0.11223 -0.381516,0.24578 -0.381517,0.24579 -0.02147,-0.0215 -0.02147,-0.0215 0.208429,-0.16582 0.208428,-0.16581 0.4169,-0.26922 0.4169,-0.26921 0.611453,-0.3206 0.611454,-0.32061 0.702203,-0.30942 0.702203,-0.30942 0.82643,-0.31079 0.82643,-0.31079 0.66704,-0.21182 0.66704,-0.21183 0.944973,-0.25213 0.944973,-0.25213 0.66704,-0.13872 0.66704,-0.13872 0.806007,-0.11169 0.806005,-0.11168 0.30572,-0.0324 0.30573,-0.0325 1.02835,-0.0829 1.02836,-0.0829 1.28819,-5e-4 1.2882,-5.1e-4 0.70944,0.0875 0.70944,0.0874 0.37018,0.0779 0.37018,0.0779 0.43362,0.1162 0.43362,0.1162 0.43787,0.16886 0.43787,0.16886 0.5128,0.25107 0.51279,0.25106 0.33352,0.23812 0.33352,0.23813 0.31316,0.32914 0.31317,0.32914 0.14679,0.28968 0.14679,0.28969 0.0889,0.34656 0.0889,0.34656 -0.0289,0.4447 -0.0289,0.44469 -0.12597,0.33352 -0.12597,0.33352 -0.22725,0.38224 -0.22724,0.38223 -0.479,0.50715 -0.47899,0.50715 -0.4453,0.32026 -0.4453,0.32026 -0.525,0.27639 -0.52499,0.27638 -0.41287,0.17406 -0.41286,0.17407 -0.86159,0.2723 -0.8616,0.27229 -0.86159,0.19132 -0.86159,0.19132 -0.63925,0.0859 -0.63925,0.0859 -0.77821,0.055 -0.77821,0.055 -1.02836,-0.01 -1.028345,-0.01 z m -5.908873,-1.5731 -0.433587,-0.0444 -0.03427,-0.0343 -0.03427,-0.0343 h 0.803034 0.803035 l 0.693173,-0.0846 0.693174,-0.0846 0.806006,-0.13966 0.806007,-0.13965 0.97737,-0.24904 0.977371,-0.24904 0.773613,-0.2782 0.77361,-0.2782 0.72262,-0.35716 0.72263,-0.35716 0.42311,-0.28033 0.42312,-0.28034 0.39063,-0.41123 0.39063,-0.41124 0.20356,-0.41186 0.20355,-0.41187 0.0311,-0.30318 0.0311,-0.30318 -0.0618,-0.22861 -0.0618,-0.22862 -0.14241,-0.20985 -0.1424,-0.20985 0.23291,0.0373 0.23292,0.0372 0.25699,0.14974 0.257,0.14973 0.25252,0.25149 0.25251,0.25148 0.12558,0.25974 0.12557,0.25974 0.002,0.3394 0.002,0.33939 -0.16651,0.35582 -0.16651,0.35583 -0.23688,0.25698 -0.23688,0.25699 -0.47429,0.31234 -0.47429,0.31235 -0.72494,0.34514 -0.72493,0.34514 -0.52808,0.19652 -0.52807,0.19651 -0.8338,0.2289 -0.833801,0.2289 -0.66704,0.1346 -0.66704,0.1346 -1.08394,0.14834 -1.08394,0.14834 -1.306286,0.0162 -1.306287,0.0162 z m 3.575524,-1.37554 0.418191,-0.21046 0.360022,-0.25933 0.360023,-0.25933 0.370798,-0.37992 0.370799,-0.37991 0.118122,-0.23035 0.118122,-0.23034 0.03235,-0.19938 0.03235,-0.19937 -0.09129,-0.13933 -0.09129,-0.13933 -0.210405,-0.10734 -0.210405,-0.10734 -0.425685,-0.0879 -0.425685,-0.0879 H 96.72462 95.719316 l -0.789709,0.0855 -0.789709,0.0855 -0.427728,0.0795 -0.427729,0.0795 -0.572831,0.14504 -0.572831,0.14504 -0.603974,0.19509 -0.603973,0.19508 -0.640628,0.2743 -0.640627,0.27431 -0.531957,0.27428 -0.531957,0.27429 -0.02008,-0.0201 -0.02008,-0.0201 0.462557,-0.28551 0.462558,-0.28551 0.611453,-0.29916 0.611453,-0.29915 0.50028,-0.20375 0.50028,-0.20374 0.694834,-0.24145 0.694833,-0.24145 0.528073,-0.14887 0.528073,-0.14886 0.4169,-0.10059 0.4169,-0.10059 0.91718,-0.16673 0.91718,-0.16673 0.555867,-0.0711 0.555866,-0.0711 0.91718,0.003 0.91718,0.003 0.40889,0.0896 0.40888,0.0896 0.34154,0.187 0.34153,0.187 0.18066,0.23598 0.18066,0.23599 v 0.1171 0.11709 l -0.11282,0.23304 -0.11281,0.23305 -0.29019,0.28426 -0.29019,0.28426 -0.33352,0.25161 -0.33352,0.25162 -0.667043,0.33016 -0.66704,0.33015 -0.66704,0.2479 -0.66704,0.2479 -0.25014,0.0816 -0.25014,0.0816 -0.194553,0.0363 -0.194554,0.0362 z" /><path
         id="path1493"
         style="fill:#03a7fc;fill-opacity:1"
         d="m 96.293093,271.28278 -0.18146,-0.045 -0.20765,-0.13983 -0.20765,-0.13984 -0.8917,-0.82589 -0.891697,-0.82589 -1.13722,-1.00548 -1.13721,-1.00548 -1.47304,-1.29942 -1.473047,-1.29942 -1.21662,-1.08589 -1.21661,-1.08589 -0.72892,-0.64982 -0.72892,-0.64982 -0.0142,4.94389 -0.0142,4.94389 h -1.527637 -1.52763 l -4e-4,-7.53981 -4e-4,-7.53982 0.11368,-0.18393 0.11367,-0.18392 0.18441,-0.11398 0.18442,-0.11397 h 0.30143 0.30142 l 0.3417,0.29183 0.34169,0.29183 0.878957,0.80967 0.87895,0.80968 0.4481,0.38544 0.44811,0.38543 1.20524,1.07592 1.20525,1.07592 -0.036,0.0583 -0.036,0.0583 0.0704,-0.0435 0.0704,-0.0435 0.0355,0.0499 0.0355,0.0499 0.50028,0.43745 0.500277,0.43744 0.16692,0.14511 0.16692,0.1451 1.16057,1.00056 1.16057,1.00056 0.72922,0.62459 0.72921,0.62458 0.0695,7.7e-4 0.0695,7.6e-4 0.004,-0.31962 0.004,-0.31962 -0.007,-4.27518 -0.007,-4.27517 1.012997,0.0367 1.01299,0.0367 h 0.57295 0.57295 l 2.9e-4,7.40692 2.8e-4,7.40693 -0.068,0.13361 -0.068,0.1336 -0.13897,0.102 -0.13896,0.10199 -0.16676,0.0247 -0.16676,0.0247 z m 0.43159,-6.25664 v -0.0278 h -0.0278 -0.0278 v 0.0278 0.0278 h 0.0278 0.0278 z m 0.27794,0 v -0.0278 h -0.0278 -0.0278 v 0.0278 0.0278 h 0.0278 0.0278 z m 0.11117,0 v -0.0278 h -0.0278 -0.0278 v 0.0278 0.0278 h 0.0278 0.0278 z M 92.444526,263.97 v -0.0278 h -0.0278 -0.0278 v 0.0278 0.0278 h 0.0278 0.0278 z m -0.77821,-0.61146 v -0.0278 h -0.0278 -0.0278 v 0.0278 0.0278 h 0.0278 0.0278 z m -8.838284,-0.61145 v -0.0278 h -0.0278 -0.0278 v 0.0278 0.0278 h 0.0278 0.0278 z m 3.835477,0 v -0.0278 h -0.0278 -0.0278 v 0.0278 0.0278 h 0.0278 0.0278 z m -4.613687,-0.22235 v -0.0278 h -0.0278 -0.0278 v 0.0278 0.0278 h 0.0278 0.0278 z m 8.004474,-0.61145 v -0.0278 h -0.0278 -0.0278 v 0.0278 0.0278 h 0.0278 0.0278 z m -0.44469,-0.38911 v -0.0278 h -0.0278 -0.0278 v 0.0278 0.0278 h 0.0278 0.0278 z m -0.389107,-0.22234 v -0.0278 h -0.0278 -0.0278 v 0.0278 0.0278 h 0.0278 0.0278 z m -0.77821,-0.8338 v -0.0278 h -0.0278 -0.0278 v 0.0278 0.0278 h 0.0278 0.0278 z m -0.22235,-0.11117 v -0.0278 h -0.0278 -0.0278 v 0.0278 0.0278 h 0.0278 0.0278 z m -0.38911,-0.4447 v -0.0278 h -0.0278 -0.0278 v 0.0278 0.0278 h 0.0278 0.0278 z m -1.11173,-0.94497 v -0.0278 h -0.0278 -0.0278 v 0.0278 0.0278 h 0.0278 0.0278 z m -0.63925,-0.58366 -0.0344,-0.0556 -0.0662,8.5e-4 -0.0662,8.5e-4 0.0834,0.0539 0.0834,0.0539 0.0172,8.5e-4 0.0172,8.6e-4 z m -1.08394,-0.86159 v -0.0278 h -0.0278 -0.0278 v 0.0278 0.0278 h 0.0278 0.0278 z m -0.72262,-0.77822 v -0.0278 h -0.0278 -0.0278 v 0.0278 0.0278 h 0.0278 0.0278 z m -1.056147,-0.77821 v -0.0278 h -0.0278 -0.0278 v 0.0278 0.0278 h 0.0278 0.0278 z m 38.549348,15.25416 -0.3891,-0.0533 -0.51674,-0.13729 -0.51673,-0.13729 -0.56786,-0.22202 -0.56786,-0.22202 -0.49963,-0.28587 -0.49962,-0.28587 -0.44542,-0.34707 -0.44542,-0.34707 -0.35426,-0.37871 -0.35426,-0.3787 -0.2442,-0.33172 -0.2442,-0.33173 -0.24536,-0.45026 -0.24537,-0.45027 -0.20222,-0.52379 -0.20223,-0.52379 -0.10967,-0.47677 -0.10967,-0.47677 -0.0327,-1.04886 -0.0327,-1.04887 0.0706,-0.47976 0.0706,-0.47977 0.16186,-0.54754 0.16186,-0.54753 0.24874,-0.53228 0.24873,-0.53228 0.37259,-0.55999 0.3726,-0.55999 0.50287,-0.50028 0.50287,-0.50028 0.52733,-0.37564 0.52733,-0.37564 0.66704,-0.33045 0.66704,-0.33044 0.50028,-0.14393 0.50028,-0.14393 0.50028,-0.0919 0.50027,-0.0919 1.00056,-0.002 1.00056,-0.002 0.49328,0.0989 0.49328,0.0988 0.45169,0.14223 0.4517,0.14224 0.40581,0.19207 0.40581,0.19206 0.58708,0.39257 0.58707,0.39257 0.55467,0.53239 0.55468,0.53238 0.35825,0.47475 0.35826,0.47474 0.32731,0.66704 0.3273,0.66704 0.14014,0.45172 0.14013,0.45172 0.0863,0.49325 0.0863,0.49325 1.7e-4,0.81011 1.8e-4,0.81011 -0.0891,0.52397 -0.0891,0.52397 -0.16806,0.52808 -0.16806,0.52807 -0.21312,0.4615 -0.21312,0.4615 -0.37023,0.56685 -0.37023,0.56686 -0.61868,0.61612 -0.61868,0.61612 -0.55752,0.36813 -0.55753,0.36812 -0.41932,0.1911 -0.41933,0.19109 -0.52332,0.17968 -0.52333,0.17969 -0.50094,0.10756 -0.50095,0.10757 -0.88939,0.021 -0.88938,0.021 z m 2.22847,-3.10724 0.43969,-0.10993 0.55587,-0.28075 0.55586,-0.28075 0.3472,-0.27757 0.34719,-0.27757 0.30887,-0.374 0.30886,-0.37399 0.21335,-0.36955 0.21335,-0.36955 0.14937,-0.37336 0.14937,-0.37337 0.084,-0.39661 0.084,-0.39662 -0.0264,-0.66704 -0.0264,-0.66704 -0.0915,-0.33352 -0.0915,-0.33352 -0.1899,-0.40267 -0.18991,-0.40268 -0.18061,-0.26436 -0.18062,-0.26437 -0.30866,-0.32614 -0.30866,-0.32614 -0.3424,-0.24492 -0.3424,-0.24492 -0.40802,-0.18831 -0.40802,-0.18831 -0.35371,-0.0915 -0.3537,-0.0915 -0.45028,-0.0514 -0.45028,-0.0514 -0.52322,0.0583 -0.52321,0.0583 -0.47594,0.13792 -0.47594,0.13793 -0.47592,0.24743 -0.47591,0.24743 -0.40198,0.33391 -0.40199,0.3339 -0.27947,0.34695 -0.27947,0.34695 -0.27815,0.55586 -0.27815,0.55587 -0.11043,0.43969 -0.11044,0.43969 v 0.58511 0.58512 l 0.0895,0.36486 0.0895,0.36486 0.21461,0.46285 0.2146,0.46284 0.20889,0.28758 0.20889,0.28757 0.27554,0.29423 0.27554,0.29422 0.36488,0.26903 0.36488,0.26903 0.39265,0.19655 0.39265,0.19654 0.27439,0.0891 0.27439,0.0891 0.36131,0.0777 0.36132,0.0777 0.61646,0.004 0.61645,0.004 z M 50.58777,263.5253 v -7.58757 h 4.663387 4.663397 l 0.57565,0.0581 0.57565,0.0582 0.54266,0.18478 0.54267,0.18478 0.45443,0.27124 0.454427,0.27125 0.38077,0.35613 0.38078,0.35612 0.27545,0.3665 0.27545,0.3665 0.19786,0.37501 0.19786,0.375 0.1106,0.31983 0.1106,0.31983 0.0519,0.22922 0.0519,0.22922 0.0586,0.51736 0.0586,0.51737 -0.0606,0.55074 -0.0606,0.55074 -0.11345,0.37027 -0.11346,0.37028 -0.24769,0.48163 -0.2477,0.48163 -0.3179,0.37851 -0.31791,0.37851 -0.37851,0.3179 -0.37851,0.31791 -0.481627,0.24634 -0.48163,0.24634 -0.29183,0.0948 -0.29183,0.0948 v 0.0388 0.0387 l 0.0954,0.13744 0.0954,0.13743 0.80995,0.97277 0.809947,0.97277 0.79805,0.95976 0.79804,0.95977 0.0746,-0.10656 0.0746,-0.10656 0.89622,-1.7148 0.89621,-1.7148 0.30582,-0.55587 0.30581,-0.55586 0.044,-0.0556 0.044,-0.0556 0.62366,-1.19511 0.623647,-1.19511 0.79121,-1.55643 0.79121,-1.55642 1.09934,-2.16788 1.09934,-2.16788 0.0898,-0.10297 0.0898,-0.10297 0.15023,-0.0777 0.15023,-0.0777 h 0.22787 0.22787 l 0.150097,0.0786 0.15011,0.0786 0.17092,0.1854 0.17093,0.1854 0.22748,0.3891 0.22748,0.38911 0.91906,1.86215 0.91905,1.86216 1.3433,2.77933 1.343297,2.77933 0.10195,0.14371 0.10194,0.14371 0.60768,1.24596 0.60769,1.24595 0.59016,1.19143 0.59016,1.19143 v 0.0176 0.0176 l -1.62591,-8.2e-4 -1.625907,-8.2e-4 -0.13312,-0.0687 -0.13311,-0.0687 -0.48184,-1.02836 -0.48185,-1.02835 h -4.108607 -4.1086 l -0.54182,1.09784 -0.541807,1.09783 h -3.07954 -3.079457 l -0.38227,-0.40377 -0.38228,-0.40377 -1.24873,-1.41669 -1.24873,-1.41669 -1.003307,-1.13953 -1.0033,-1.13953 -0.66342,-0.77821 -0.66342,-0.77821 -0.0839,-0.10055 -0.0839,-0.10054 2.69363,0.0118 2.693627,0.0118 0.32718,-0.11812 0.32717,-0.11813 0.25313,-0.1972 0.25312,-0.19721 0.18174,-0.25561 0.18173,-0.25561 0.0994,-0.28526 0.0994,-0.28526 -8.5e-4,-0.47249 -8.5e-4,-0.47248 -0.17145,-0.36395 -0.17146,-0.36394 -0.17772,-0.20242 -0.17772,-0.20241 -0.25891,-0.1715 -0.25891,-0.17149 -0.36367,-0.11293 -0.36367,-0.11292 -3.241107,-0.0209 -3.24111,-0.021 -0.0202,0.0657 -0.0202,0.0657 -0.0318,4.91941 -0.0318,4.91942 -4.2e-4,1.04225 -4.2e-4,1.04225 H 52.06073 50.58768 Z m 28.330672,2.32538 -0.0371,-0.0371 -0.0371,0.0371 -0.0371,0.0371 h 0.0741 0.0741 z m -3.189377,-0.12978 0.0291,-0.11125 -0.0472,0.0291 -0.0472,0.0292 -0.23294,-0.48766 -0.23294,-0.48766 -0.49637,-1.05614 -0.49638,-1.05615 -0.45071,-0.96035 -0.450707,-0.96035 -0.0564,0.0188 -0.0564,0.0188 -0.58181,1.1639 -0.58181,1.1639 -0.68359,1.40357 -0.6836,1.40356 h 2.51987 2.519877 z m 0.15063,0.0835 v -0.0278 h -0.0278 -0.0278 v 0.0278 0.0278 h 0.0278 0.0278 z m -0.44469,-0.94498 v -0.0278 h -0.0278 -0.0278 v 0.0278 0.0278 h 0.0278 0.0278 z m 1.6676,-2.61257 v -0.0278 h -0.0278 -0.0278 v 0.0278 0.0278 h 0.0278 0.0278 z m -0.55587,-1.16732 v -0.0278 h -0.0278 -0.0278 v 0.0278 0.0278 h 0.0278 0.0278 z M 70.988078,259.134 v -0.0278 h -0.0278 -0.0278 v 0.0278 0.0278 h 0.0278 0.0278 z m 3.001677,-3.16844 v -0.0278 h -0.0278 -0.0278 v 0.0278 0.0278 h 0.0278 0.0278 z m 24.632748,7.58392 0.0176,-7.56345 4.253547,0.0216 4.25355,0.0216 0.50194,0.0915 0.50194,0.0915 0.49025,0.14207 0.49026,0.14207 0.59202,0.26481 0.59203,0.26481 0.38911,0.25671 0.3891,0.25671 0.27926,0.24144 0.27926,0.24144 0.3107,0.33867 0.31071,0.33867 0.27814,0.41219 0.27814,0.41219 0.22189,0.44425 0.22189,0.44425 0.11781,0.36131 0.11782,0.36132 0.11049,0.47248 0.1105,0.47249 0.0599,0.74926 0.0599,0.74926 -0.0355,0.52924 -0.0355,0.52923 -0.10608,0.53765 -0.10608,0.53766 -0.19771,0.5181 -0.19771,0.51809 -0.25532,0.48424 -0.25532,0.48425 -0.34993,0.46625 -0.34993,0.46625 -0.47885,0.45327 -0.47885,0.45327 -0.49851,0.32842 -0.49851,0.32841 -0.5297,0.23231 -0.52969,0.23231 -0.64023,0.16169 -0.64023,0.16169 -0.7322,0.0559 -0.73219,0.0558 -3.79866,1.4e-4 -3.798657,1.3e-4 z m 8.802627,4.44392 0.38911,-0.14422 0.36131,-0.1823 0.36132,-0.1823 0.30572,-0.20966 0.30573,-0.20965 0.28245,-0.29692 0.28246,-0.29691 0.16903,-0.22235 0.16903,-0.22235 0.19656,-0.3915 0.19657,-0.3915 0.13016,-0.4145 0.13017,-0.41451 -0.002,-0.88939 -0.002,-0.88938 -0.17156,-0.48523 -0.17156,-0.48524 -0.23286,-0.39195 -0.23285,-0.39196 -0.34193,-0.36552 -0.34193,-0.36552 -0.30772,-0.23665 -0.30773,-0.23665 -0.41302,-0.20788 -0.41301,-0.20788 -0.53196,-0.14213 -0.53195,-0.14213 -2.37858,-0.0243 -2.37858,-0.0243 -0.13672,0.0343 -0.13672,0.0343 v 4.54778 4.54779 l 0.0235,0.0232 0.0235,0.0232 2.65852,-7.1e-4 2.65853,-7.1e-4 z m 4.86384,-1.02168 v -0.0278 h -0.0278 -0.0278 v 0.0278 0.0278 h 0.0278 0.0278 z m 0.91718,-0.58366 0.0344,-0.0556 h -0.0278 -0.0278 l -0.0344,0.0556 -0.0344,0.0556 h 0.0278 0.0278 z m -12.2198,-2.26053 -0.0371,-0.0371 -0.0371,0.0371 -0.0371,0.0371 h 0.0741 0.0741 z m 0.16676,-0.0556 -0.0371,-0.0371 -0.0371,0.0371 -0.0371,0.0371 h 0.0741 0.0741 z m 11.41379,-4.66002 v -0.0278 h -0.0278 -0.0278 v 0.0278 0.0278 h 0.0278 0.0278 z m -1.16732,-1.50084 v -0.0278 h -0.0278 -0.0278 v 0.0278 0.0278 h 0.0278 0.0278 z m -0.50028,-0.3891 v -0.0278 h -0.0278 -0.0278 v 0.0278 0.0278 h 0.0278 0.0278 z m -2.44581,-1.11174 v -0.0268 h -0.0278 -0.0278 v 0.0278 0.0278 h 0.0278 0.0278 z m -14.341364,-1.78826 -0.36131,-0.0159 -0.80601,-0.0598 -0.80601,-0.0598 -0.86159,-0.10867 -0.86159,-0.10868 -0.8616,-0.17133 -0.861587,-0.17132 -0.63925,-0.16498 -0.63925,-0.16497 -0.84405,-0.2498 -0.84406,-0.24981 -0.6012,-0.2131 -0.60119,-0.21311 -1.083947,-0.4304 -1.08394,-0.43041 -0.66704,-0.31303 -0.66704,-0.31303 -0.77293,-0.40771 -0.77293,-0.40772 -0.644527,-0.39282 -0.64453,-0.39283 -0.61145,-0.45303 -0.61146,-0.45304 -0.51453,-0.43201 -0.51453,-0.43201 0.0367,-0.0594 0.0367,-0.0594 -0.0601,0.0372 -0.0601,0.0371 -0.62941,-0.5759 -0.6294,-0.57591 -0.51166,-0.53561 -0.51166,-0.53561 -0.511177,-0.59548 -0.51118,-0.59547 -0.47615,-0.64029 -0.47614,-0.64028 -0.46045,-0.74787 -0.46045,-0.74786 v -0.0417 -0.0416 l 1.52853,-0.006 1.528537,-0.006 0.14082,0.20934 0.14083,0.20933 0.45084,0.69484 0.45085,0.69483 0.25422,0.33352 0.25423,0.33352 0.4115,0.50028 0.41151,0.50028 0.36861,0.41061 0.36861,0.41062 -0.0153,0.0521 -0.0153,0.0521 0.0479,-0.0296 0.0479,-0.0296 0.20472,0.20965 0.20472,0.20965 -0.0428,0.0471 -0.0428,0.0471 0.0596,-0.0339 0.0596,-0.0339 0.46845,0.47494 0.46846,0.47494 0.722627,0.59455 0.72262,0.59455 0.55587,0.4195 0.55587,0.41951 0.77821,0.5301 0.77821,0.5301 0.55587,0.32127 0.55587,0.32127 0.639247,0.34261 0.63924,0.3426 0.63925,0.29367 0.63925,0.29366 0.94497,0.378 0.94497,0.37799 0.75042,0.25187 0.750427,0.25187 0.69483,0.19508 0.69483,0.19509 0.64254,0.16744 0.64253,0.16745 0.80272,0.14305 0.80272,0.14304 0.63925,0.0759 0.639247,0.0759 -0.36132,-0.005 -0.361307,-0.005 z m 6.753784,-0.16744 -0.16676,-0.0214 -1.137857,-0.14085 -1.13786,-0.14085 -1.00223,-0.19432 -1.00223,-0.19432 -0.69483,-0.16906 -0.69483,-0.16906 -1.056147,-0.35074 -1.05615,-0.35074 -0.88939,-0.36039 -0.88938,-0.3604 -0.75789,-0.36057 -0.75788,-0.36058 -0.602427,-0.34703 -0.60243,-0.34703 -0.6686,-0.44634 -0.6686,-0.44635 -0.61146,-0.45349 -0.61145,-0.45348 -0.66704,-0.54498 -0.66704,-0.54497 -0.26154,-0.25277 -0.261537,-0.25277 0.0339,-0.0548 0.0339,-0.0548 -0.073,0.0451 -0.073,0.0451 -0.72103,-0.74528 -0.72104,-0.74528 -0.39936,-0.47249 -0.39936,-0.47249 -0.44721,-0.58366 -0.44721,-0.58366 -0.51053,-0.7441 -0.51052,-0.7441 -0.0809,-0.15642 -0.0809,-0.15642 v -0.0336 -0.0336 l 1.07763,0.01 1.07763,0.01 0.14832,0.0284 0.14831,0.0283 0.261,0.41444 0.26099,0.41444 0.44818,0.67633 0.44817,0.67634 0.35366,0.47249 0.353667,0.47248 0.28047,0.33352 0.28048,0.33352 0.49573,0.54371 0.49572,0.54371 0.39529,0.38062 0.39529,0.38063 0.38911,0.32559 0.3891,0.32559 0.11117,0.10428 0.11118,0.10427 0.63924,0.48447 0.63925,0.48446 0.694837,0.47409 0.69483,0.4741 0.62477,0.36854 0.62477,0.36854 0.61718,0.30953 0.61718,0.30953 0.67579,0.29392 0.67579,0.29392 0.50028,0.17135 0.500277,0.17135 0.75042,0.2226 0.75042,0.2226 0.46182,0.1171 0.46182,0.1171 0.7055,0.13223 0.7055,0.13223 0.69484,0.0876 0.694827,0.0876 1.03185,0.0594 1.03184,0.0594 1.02487,-0.0608 1.02486,-0.0608 0.806,-0.11212 0.80601,-0.11212 0.58366,-0.14104 0.58366,-0.14104 0.75042,-0.27962 0.75042,-0.27962 0.50028,-0.25054 0.50028,-0.25054 0.44469,-0.25292 0.4447,-0.25293 0.48061,-0.32581 0.48061,-0.32582 0.44589,-0.38594 0.44588,-0.38594 0.45419,-0.54301 0.45419,-0.54301 0.22835,-0.38911 0.22836,-0.38911 0.16198,-0.38479 0.16199,-0.3848 0.13255,-0.50459 0.13255,-0.50459 -0.0327,0.3288 -0.0327,0.32881 -0.10793,0.42161 -0.10793,0.42162 -0.11861,0.30573 -0.1186,0.30572 -0.21809,0.43966 -0.21808,0.43966 -0.14612,0.22738 -0.14612,0.22738 -0.41373,0.54601 -0.41372,0.54601 -0.50512,0.44292 -0.50513,0.44292 -0.53473,0.36034 -0.53473,0.36033 -0.62176,0.30842 -0.62175,0.30842 -0.58284,0.21893 -0.58284,0.21892 -0.87325,0.21929 -0.87324,0.21929 -0.63925,0.1151 -0.63925,0.11511 -0.72262,0.0814 -0.72263,0.0814 -1.13953,-0.008 -1.13952,-0.008 z m -11.395284,-2.19156 -0.389107,-0.16542 -0.58366,-0.2422 -0.58366,-0.2422 -0.72263,-0.31347 -0.72263,-0.31347 -1.19511,-0.60042 -1.195107,-0.60042 -0.52133,-0.31753 -0.52132,-0.31752 -0.82437,-0.55467 -0.82436,-0.55466 -0.69024,-0.55117 -0.69024,-0.55118 -0.91017,-0.82757 -0.910157,-0.82756 -0.53559,-0.58592 -0.53558,-0.58593 -0.41204,-0.52089 -0.41205,-0.5209 -0.1197,-0.17152 -0.1197,-0.17153 -0.33356,-0.565 -0.33356,-0.56499 1.31751,2.7e-4 1.31751,2.8e-4 0.2291,0.34714 0.22911,0.34714 0.552947,0.83529 0.55295,0.83529 0.71879,0.88419 0.71878,0.88419 0.66704,0.6922 0.66704,0.6922 1.15398,0.99365 1.153987,0.99365 0.43547,0.31898 0.43547,0.31897 0.42381,0.30215 0.42381,0.30214 -0.0586,0.0706 -0.0586,0.0706 0.0359,0.058 0.0359,0.058 -0.0728,8.5e-4 -0.0728,8.5e-4 0.0766,0.0485 0.0766,0.0485 -0.039,0.0757 -0.039,0.0757 0.0797,-0.0973 0.0797,-0.0973 h 0.0263 0.0263 v 0.0834 0.0834 l -0.0602,8.5e-4 -0.0602,8.6e-4 0.0834,0.0539 0.0834,0.0539 0.0834,-0.003 0.0834,-0.003 -0.10711,-0.042 -0.10711,-0.042 0.0892,-0.0342 0.0892,-0.0342 0.0644,0.0777 0.0644,0.0776 -0.0407,0.0719 -0.0407,0.0719 0.0689,-0.0635 0.0689,-0.0635 -0.0949,-0.14491 -0.0949,-0.14491 h -0.0525 -0.0525 l 0.0311,-0.0504 0.0311,-0.0504 -0.10358,0.0271 -0.10359,0.0271 -0.033,-0.0861 -0.033,-0.0861 0.0519,-0.0321 0.0519,-0.0321 0.37644,0.25889 0.37644,0.25888 -0.0153,0.0535 -0.0153,0.0535 0.0508,-0.0314 0.0509,-0.0314 0.25625,0.14322 0.25625,0.14322 v 0.0541 0.0541 l 0.0642,-0.0397 0.0642,-0.0397 -0.0397,0.0642 -0.0397,0.0642 h 0.10357 0.10357 l 0.24713,0.1563 0.24713,0.15631 0.17664,0.0778 0.17665,0.0778 -0.0324,0.0524 -0.0324,0.0524 0.0607,-0.0375 0.0607,-0.0375 0.489887,0.26003 0.48988,0.26004 0.0232,0.019 0.0232,0.019 -0.051,-0.004 -0.051,-0.004 z m -13.431011,-3.38152 -0.63241,-0.38474 0.0154,-0.0836 0.0154,-0.0836 -0.0564,-0.0349 -0.0564,-0.0349 0.0368,0.0959 0.0368,0.0959 -0.0929,-0.0356 -0.0929,-0.0356 -0.41865,-0.2825 -0.41865,-0.2825 0.038,-0.0614 0.038,-0.0614 -0.0654,0.0404 -0.0654,0.0404 -0.36118,-0.25773 -0.36119,-0.25774 0.0298,-0.0482 0.0298,-0.0482 -0.0651,-0.0402 -0.0651,-0.0402 0.0397,0.0642 0.0397,0.0642 h -0.0356 -0.0356 l -0.24503,-0.20078 -0.24503,-0.20079 0.0266,-0.0431 0.0266,-0.0431 -0.0763,0.008 -0.0763,0.008 -0.77624,-0.67949 -0.77624,-0.67949 -0.71717,-0.73876 -0.71716,-0.73875 -0.50028,-0.60089 -0.50028,-0.60088 -0.32412,-0.48227 -0.32412,-0.48227 -0.053,-0.0973 -0.053,-0.0973 0.738467,2.1e-4 0.73847,2.1e-4 0.36132,0.54072 0.36131,0.54072 0.37011,0.48945 0.3701,0.48945 0.24135,0.28765 0.24135,0.28765 0.54253,0.63189 0.54254,0.6319 -0.037,0.0598 -0.0369,0.0598 0.0573,-0.0354 0.0573,-0.0354 0.46309,0.51319 0.46309,0.5132 0.64165,0.6645 0.64164,0.66451 -0.11117,-0.0799 -0.11117,-0.0799 0.10589,0.12411 0.10589,0.12412 h 0.0225 0.0225 l -0.0344,-0.0556 -0.0344,-0.0556 h 0.0334 0.0334 l 0.40067,0.34817 0.40067,0.34817 0.45859,0.35361 0.45859,0.35361 v 0.0208 0.0208 h -0.0207 -0.0207 z m -10.33227,12.90925 v -0.0278 h 0.02779 0.02779 v 0.0278 0.0278 h -0.02779 -0.02779 z" /><path
         id="path2638"
         style="fill:#043351;fill-opacity:1"
         d="m 95.959123,271.12512 -0.22569,-0.15286 -1.158447,-1.06 -1.15844,-1.06 -0.52807,-0.46892 -0.52808,-0.46892 -0.91718,-0.80548 -0.91718,-0.80547 -1.723187,-1.5216 -1.72318,-1.5216 -0.13897,-0.13663 -0.13897,-0.13664 0.19456,0.11201 0.19455,0.11201 0.25014,0.0814 0.25014,0.0814 0.61502,0.14431 0.61503,0.1443 0.553187,0.0827 0.55319,0.0827 0.77732,0.0811 0.77732,0.0811 0.42266,0.0114 0.42267,0.0114 0.0532,-0.0329 0.0532,-0.0329 0.7026,0.59598 0.70259,0.59598 0.32235,-0.013 0.32235,-0.013 1.306287,-0.006 1.30629,-0.006 0.0163,2.68594 0.0163,2.68595 -0.0349,0.24528 -0.0349,0.24528 -0.15773,0.15772 -0.15772,0.15772 h -0.32943 -0.32943 z m -3.404167,-7.1012 v -0.0278 h -0.0278 -0.0278 v 0.0278 0.0278 h 0.0278 0.0278 z m -4.836047,-0.55586 v -0.0278 h -0.0278 -0.0278 v 0.0278 0.0278 h 0.0278 0.0278 z m 34.435941,7.7749 -0.22235,-0.0243 -0.48491,-0.0813 -0.48492,-0.0813 -0.54343,-0.17262 -0.54344,-0.17262 -0.681,-0.32413 -0.68099,-0.32413 -0.45854,-0.32261 -0.45853,-0.32261 -0.47797,-0.47727 -0.47798,-0.47728 -0.29152,-0.41291 -0.29151,-0.41291 -0.26629,-0.52808 -0.26629,-0.52807 -0.17117,-0.485 -0.17118,-0.485 -0.096,-0.48777 -0.096,-0.48776 -0.003,-1.13953 -0.003,-1.13953 0.10376,-0.47248 0.10376,-0.47249 0.16597,-0.47249 0.16598,-0.47248 0.2991,-0.58644 0.2991,-0.58645 0.33097,-0.45184 0.33098,-0.45184 0.43613,-0.42347 0.43614,-0.42347 0.49841,-0.35871 0.49842,-0.35871 0.59062,-0.30446 0.59062,-0.30446 0.49332,-0.16405 0.49332,-0.16406 0.42893,-0.0874 0.42894,-0.0875 0.68645,-0.0587 0.68644,-0.0587 0.67419,0.0585 0.67418,0.0585 0.46229,0.10779 0.46228,0.10779 0.41631,0.14951 0.41631,0.14952 0.32282,0.16223 0.32282,0.16223 0.37201,0.2388 0.37201,0.23879 0.42451,0.3419 0.4245,0.3419 0.4093,0.43512 0.40929,0.43513 0.29666,0.42918 0.29665,0.42919 0.25167,0.50648 0.25167,0.50648 0.15654,0.46311 0.15654,0.46311 0.10087,0.4596 0.10087,0.4596 -0.004,1.05614 -0.004,1.05615 -0.11736,0.52807 -0.11735,0.52808 -0.17693,0.50028 -0.17693,0.50028 -0.21105,0.41986 -0.21104,0.41986 -0.33282,0.49732 -0.33282,0.49732 -0.34567,0.37701 -0.34568,0.37702 -0.39643,0.32194 -0.39642,0.32195 -0.3545,0.23899 -0.3545,0.239 -0.50709,0.24018 -0.5071,0.24018 -0.58366,0.1951 -0.58366,0.19509 -0.50028,0.0877 -0.50028,0.0877 -0.69483,0.0206 -0.69484,0.0206 z m 1.34208,-3.02305 0.44978,-0.0564 0.405,-0.13775 0.405,-0.13775 0.36277,-0.1994 0.36277,-0.1994 0.30962,-0.2388 0.30963,-0.23881 0.28098,-0.29872 0.28098,-0.29873 0.2255,-0.33352 0.2255,-0.33352 0.14599,-0.28865 0.14599,-0.28865 0.13809,-0.41137 0.13809,-0.41137 0.0611,-0.52289 0.061,-0.52288 -0.0845,-0.56121 -0.0845,-0.5612 -0.14407,-0.38377 -0.14408,-0.38377 -0.21472,-0.36131 -0.21472,-0.36132 -0.29179,-0.33351 -0.29179,-0.33352 -0.3518,-0.2812 -0.35181,-0.2812 -0.47871,-0.23621 -0.47872,-0.2362 -0.45328,-0.11708 -0.45327,-0.11708 -0.69483,-0.005 -0.69484,-0.005 -0.44469,0.1031 -0.44469,0.10311 -0.42849,0.16408 -0.4285,0.16409 -0.43058,0.28109 -0.43058,0.28108 -0.35628,0.34111 -0.35629,0.34111 -0.24227,0.33846 -0.24228,0.33845 -0.19518,0.41197 -0.19519,0.41196 -0.11906,0.4447 -0.11907,0.44469 -0.004,0.61145 -0.004,0.61146 0.10127,0.3891 0.10128,0.38911 0.15634,0.3476 0.15635,0.3476 0.25667,0.38256 0.25667,0.38257 0.39988,0.38558 0.39987,0.38558 0.33352,0.22454 0.33352,0.22453 0.27794,0.14055 0.27793,0.14054 0.47249,0.14549 0.47248,0.14548 0.38911,0.0482 0.3891,0.0481 0.16822,0.007 0.16822,0.007 z m -72.90369,-4.68237 0.0216,-7.57368 4.919427,0.0143 4.919417,0.0143 0.37968,0.0564 0.37969,0.0564 0.39222,0.13704 0.39223,0.13703 0.41342,0.223 0.41342,0.223 0.332697,0.256 0.33269,0.256 0.35704,0.41844 0.35703,0.41845 0.24569,0.42347 0.2457,0.42348 0.14121,0.39746 0.14121,0.39747 0.0866,0.45637 0.0866,0.45637 v 0.57263 0.57263 l -0.0786,0.40789 -0.0786,0.40789 -0.13792,0.37824 -0.13793,0.37823 -0.26983,0.44938 -0.26984,0.44939 -0.4169,0.42518 -0.4169,0.42519 -0.416907,0.27583 -0.4169,0.27583 -0.57313,0.22756 -0.57314,0.22757 0.18932,0.24803 0.18933,0.24804 1.273197,1.52843 1.2732,1.52843 0.25014,0.31388 0.25014,0.31388 0.0521,-0.0145 0.0521,-0.0145 0.49566,-0.94151 0.49567,-0.9415 0.72707,-1.37266 0.72707,-1.37266 1.657367,0.003 1.65736,0.003 v 0.0793 0.0793 l 2.62647,-0.0204 2.626477,-0.0204 1.11173,0.0414 1.11173,0.0414 0.49384,0.0121 0.493837,0.0121 1.24533,2.5207 1.24534,2.52071 0.0118,0.0424 0.0118,0.0424 -0.13897,-0.004 -0.13897,-0.004 -1.57206,-0.01 -1.572067,-0.01 -0.5225,-1.08394 -0.52249,-1.08394 h -4.104877 -4.10527 l -0.5511,1.11265 -0.551097,1.11265 -2.92115,-0.006 -2.921147,-0.006 -0.17933,-0.0292 -0.17932,-0.0292 -0.68545,-0.7582 -0.68544,-0.75821 -0.46416,-0.52807 -0.46416,-0.52807 -0.75557,-0.86151 -0.75557,-0.8615 -0.694837,-0.78311 -0.69483,-0.78311 -0.58954,-0.69003 -0.58953,-0.69002 -0.14019,-0.16676 -0.14019,-0.16676 2.703047,-6e-5 2.70305,-6e-5 0.31421,-0.12698 0.31421,-0.12698 0.25362,-0.19365 0.25362,-0.19366 0.16498,-0.23978 0.16497,-0.23978 0.12068,-0.35671 0.12067,-0.3567 -0.0253,-0.4447 -0.0253,-0.44469 -0.14244,-0.31563 -0.14244,-0.31563 -0.23143,-0.25107 -0.23142,-0.25107 -0.25979,-0.1653 -0.25978,-0.16531 -0.33352,-0.10179 -0.33352,-0.1018 h -3.279207 -3.27957 l -0.007,0.0695 -0.007,0.0695 -0.007,5.94777 -0.007,5.94777 H 52.05257 50.57185 Z m 11.111114,3.21013 v -0.0278 h -0.0278 -0.0278 v 0.0278 0.0278 h 0.0278 0.0278 z m 20.600698,4.3111 -0.55002,-0.0309 -0.006,-4.26686 -0.006,-4.26686 0.0834,0.0348 0.0834,0.0348 0.44469,0.12495 0.4447,0.12495 0.77821,0.17154 0.778207,0.17154 0.20845,0.0331 0.20845,0.0331 v 3.94413 3.94413 l -0.958867,-0.0108 -0.95887,-0.0108 z m 17.629031,0.01 -1.32018,-0.0149 v -3.19523 -3.19523 l 0.18065,-4.5e-4 0.18066,-4.5e-4 0.77821,-0.16313 0.778217,-0.16312 0.55586,-0.16051 0.55587,-0.16051 0.0146,2.07943 0.0146,2.07943 3.54298,-0.0251 3.54297,-0.0251 0.58366,-0.11266 0.58366,-0.11265 0.36132,-0.0914 0.36131,-0.0914 0.4169,-0.14602 0.4169,-0.14601 0.50028,-0.23189 0.50028,-0.23188 0.37521,-0.25862 0.37521,-0.25862 v 0.0816 0.0816 l -0.24716,0.47252 -0.24717,0.47251 -0.23518,0.34633 -0.23519,0.34633 -0.43517,0.48535 -0.43517,0.48535 -0.48604,0.36587 -0.48605,0.36587 -0.5413,0.27893 -0.5413,0.27893 -0.57949,0.18982 -0.57949,0.18983 -0.6024,0.0832 -0.60239,0.0832 -2.86271,0.0167 -2.86272,0.0167 z m 7.240157,-2.98678 v -0.0278 h 0.0278 0.0278 v 0.0278 0.0278 h -0.0278 -0.0278 z m -21.400861,-6.00336 v -0.0278 h 0.0278 0.0278 v 0.0278 0.0278 h -0.0278 -0.0278 z" /></g></g></svg>
